<mxfile host="65bd71144e">
    <diagram id="40kS9WGa9BpmUxOKCTlo" name="Página-1">
        <mxGraphModel dx="918" dy="1706" grid="0" gridSize="10" guides="1" tooltips="1" connect="1" arrows="1" fold="1" page="1" pageScale="1" pageWidth="827" pageHeight="1169" math="0" shadow="0">
            <root>
                <mxCell id="0"/>
                <mxCell id="1" parent="0"/>
                <mxCell id="6" value="Negócio" style="swimlane;fontStyle=0;childLayout=stackLayout;horizontal=1;startSize=30;horizontalStack=0;resizeParent=1;resizeParentMax=0;resizeLast=0;collapsible=1;marginBottom=0;whiteSpace=wrap;html=1;" parent="1" vertex="1">
                    <mxGeometry x="40" y="40" width="1060" height="690" as="geometry"/>
                </mxCell>
                <mxCell id="10" value="Cliente" style="swimlane;horizontal=0;whiteSpace=wrap;html=1;" parent="6" vertex="1">
                    <mxGeometry y="30" width="1060" height="330" as="geometry">
                        <mxRectangle y="30" width="450" height="30" as="alternateBounds"/>
                    </mxGeometry>
                </mxCell>
                <mxCell id="81" style="edgeStyle=orthogonalEdgeStyle;html=1;" parent="10" source="11" target="76" edge="1">
                    <mxGeometry relative="1" as="geometry"/>
                </mxCell>
                <mxCell id="11" value="Comprar produto" style="ellipse;whiteSpace=wrap;html=1;aspect=fixed;labelBackgroundColor=none;" parent="10" vertex="1">
                    <mxGeometry x="60" y="40" width="60" height="60" as="geometry"/>
                </mxCell>
                <mxCell id="13" value="Venda realizada" style="ellipse;html=1;shape=endState;fillColor=#000000;strokeColor=#ff0000;labelBackgroundColor=none;verticalAlign=middle;spacingTop=60;" parent="10" vertex="1">
                    <mxGeometry x="800" y="50" width="40" height="40" as="geometry"/>
                </mxCell>
                <mxCell id="17" value="" style="edgeStyle=none;html=1;" parent="10" source="76" target="16" edge="1">
                    <mxGeometry relative="1" as="geometry">
                        <mxPoint x="220" y="70" as="sourcePoint"/>
                    </mxGeometry>
                </mxCell>
                <mxCell id="19" value="" style="edgeStyle=none;html=1;" parent="10" source="16" target="18" edge="1">
                    <mxGeometry relative="1" as="geometry"/>
                </mxCell>
                <mxCell id="16" value="Listar produtos" style="rounded=1;whiteSpace=wrap;html=1;labelBackgroundColor=none;" parent="10" vertex="1">
                    <mxGeometry x="260" y="50" width="60" height="40" as="geometry"/>
                </mxCell>
                <mxCell id="21" value="" style="edgeStyle=none;html=1;" parent="10" source="18" target="20" edge="1">
                    <mxGeometry relative="1" as="geometry"/>
                </mxCell>
                <mxCell id="18" value="Ver produto" style="rounded=1;whiteSpace=wrap;html=1;labelBackgroundColor=none;" parent="10" vertex="1">
                    <mxGeometry x="360" y="50" width="60" height="40" as="geometry"/>
                </mxCell>
                <mxCell id="23" value="" style="edgeStyle=none;html=1;" parent="10" source="20" target="22" edge="1">
                    <mxGeometry relative="1" as="geometry"/>
                </mxCell>
                <mxCell id="20" value="Adicionar ao carrinho" style="rounded=1;whiteSpace=wrap;html=1;labelBackgroundColor=none;" parent="10" vertex="1">
                    <mxGeometry x="450" y="50" width="80" height="40" as="geometry"/>
                </mxCell>
                <mxCell id="25" value="" style="edgeStyle=none;html=1;" parent="10" source="22" target="24" edge="1">
                    <mxGeometry relative="1" as="geometry"/>
                </mxCell>
                <mxCell id="22" value="Selecionar pagamento" style="rounded=1;whiteSpace=wrap;html=1;labelBackgroundColor=none;" parent="10" vertex="1">
                    <mxGeometry x="560" y="50" width="80" height="40" as="geometry"/>
                </mxCell>
                <mxCell id="27" value="" style="edgeStyle=none;html=1;" parent="10" source="24" target="13" edge="1">
                    <mxGeometry relative="1" as="geometry">
                        <mxPoint x="370" y="230" as="targetPoint"/>
                    </mxGeometry>
                </mxCell>
                <mxCell id="24" value="Pagar" style="rounded=1;whiteSpace=wrap;html=1;labelBackgroundColor=none;" parent="10" vertex="1">
                    <mxGeometry x="680" y="50" width="80" height="40" as="geometry"/>
                </mxCell>
                <mxCell id="76" value="Login" style="rounded=1;whiteSpace=wrap;html=1;container=1;collapsible=0;absoluteArcSize=1;arcSize=22;childLayout=stackLayout;horizontal=1;horizontalStack=0;resizeParent=1;resizeParentMax=0;resizeLast=0;labelBackgroundColor=default;" parent="10" vertex="1">
                    <mxGeometry x="160" y="45" width="60" height="50" as="geometry"/>
                </mxCell>
                <mxCell id="77" value="" style="whiteSpace=wrap;connectable=0;html=1;shape=mxgraph.basic.rect;size=10;rectStyle=rounded;bottomRightStyle=square;bottomLeftStyle=square;part=1;labelBackgroundColor=default;" parent="76" vertex="1">
                    <mxGeometry width="60" height="10" as="geometry"/>
                </mxCell>
                <mxCell id="78" value="Login usuário" style="shape=mxgraph.bpmn.task;part=1;taskMarker=abstract;connectable=0;whiteSpace=wrap;html=1;labelBackgroundColor=default;" parent="76" vertex="1">
                    <mxGeometry y="10" width="60" height="30" as="geometry"/>
                </mxCell>
                <mxCell id="79" value="" style="whiteSpace=wrap;connectable=0;html=1;shape=mxgraph.basic.rect;size=10;rectStyle=rounded;topRightStyle=square;topLeftStyle=square;fillColor=#C0C0C0;part=1;labelBackgroundColor=default;" parent="76" vertex="1">
                    <mxGeometry y="40" width="60" height="10" as="geometry"/>
                </mxCell>
                <mxCell id="28" value="Vendedor" style="swimlane;horizontal=0;whiteSpace=wrap;html=1;" parent="6" vertex="1">
                    <mxGeometry y="360" width="1060" height="330" as="geometry">
                        <mxRectangle y="30" width="450" height="30" as="alternateBounds"/>
                    </mxGeometry>
                </mxCell>
                <mxCell id="87" style="edgeStyle=none;html=1;" parent="28" source="82" target="83" edge="1">
                    <mxGeometry relative="1" as="geometry"/>
                </mxCell>
                <mxCell id="82" value="Cadastrar produto" style="ellipse;whiteSpace=wrap;html=1;aspect=fixed;labelBackgroundColor=none;" parent="28" vertex="1">
                    <mxGeometry x="40" y="35" width="60" height="60" as="geometry"/>
                </mxCell>
                <mxCell id="83" value="Login" style="rounded=1;whiteSpace=wrap;html=1;container=1;collapsible=0;absoluteArcSize=1;arcSize=22;childLayout=stackLayout;horizontal=1;horizontalStack=0;resizeParent=1;resizeParentMax=0;resizeLast=0;labelBackgroundColor=default;" parent="28" vertex="1">
                    <mxGeometry x="160" y="40" width="60" height="50" as="geometry"/>
                </mxCell>
                <mxCell id="84" value="" style="whiteSpace=wrap;connectable=0;html=1;shape=mxgraph.basic.rect;size=10;rectStyle=rounded;bottomRightStyle=square;bottomLeftStyle=square;part=1;labelBackgroundColor=default;" parent="83" vertex="1">
                    <mxGeometry width="60" height="10" as="geometry"/>
                </mxCell>
                <mxCell id="85" value="Login usuário" style="shape=mxgraph.bpmn.task;part=1;taskMarker=abstract;connectable=0;whiteSpace=wrap;html=1;labelBackgroundColor=default;" parent="83" vertex="1">
                    <mxGeometry y="10" width="60" height="30" as="geometry"/>
                </mxCell>
                <mxCell id="86" value="" style="whiteSpace=wrap;connectable=0;html=1;shape=mxgraph.basic.rect;size=10;rectStyle=rounded;topRightStyle=square;topLeftStyle=square;fillColor=#C0C0C0;part=1;labelBackgroundColor=default;" parent="83" vertex="1">
                    <mxGeometry y="40" width="60" height="10" as="geometry"/>
                </mxCell>
                <mxCell id="65" value="Login usuário" style="swimlane;whiteSpace=wrap;html=1;labelBackgroundColor=default;" parent="1" vertex="1">
                    <mxGeometry x="40" y="-200" width="350" height="200" as="geometry"/>
                </mxCell>
                <mxCell id="67" value="Usuário" style="ellipse;whiteSpace=wrap;html=1;aspect=fixed;labelBackgroundColor=none;" parent="65" vertex="1">
                    <mxGeometry x="10" y="50" width="60" height="60" as="geometry"/>
                </mxCell>
                <mxCell id="75" value="" style="edgeStyle=orthogonalEdgeStyle;html=1;" parent="65" source="68" target="74" edge="1">
                    <mxGeometry relative="1" as="geometry"/>
                </mxCell>
                <mxCell id="68" value="Login usuário" style="rounded=1;whiteSpace=wrap;html=1;container=1;collapsible=0;absoluteArcSize=1;arcSize=20;childLayout=stackLayout;horizontal=1;horizontalStack=0;resizeParent=1;resizeParentMax=0;resizeLast=0;fontFamily=Helvetica;fontSize=12;fontColor=default;align=center;strokeColor=default;fillColor=default;" parent="65" vertex="1">
                    <mxGeometry x="190" y="60" width="60" height="40" as="geometry"/>
                </mxCell>
                <mxCell id="69" value="" style="edgeStyle=none;html=1;endArrow=none;" parent="65" source="67" target="71" edge="1">
                    <mxGeometry relative="1" as="geometry">
                        <mxPoint x="70" y="80" as="sourcePoint"/>
                        <mxPoint x="190" y="80" as="targetPoint"/>
                    </mxGeometry>
                </mxCell>
                <mxCell id="66" value="S" style="edgeStyle=none;html=1;startArrow=none;" parent="65" source="71" target="68" edge="1">
                    <mxGeometry relative="1" as="geometry"/>
                </mxCell>
                <mxCell id="72" value="" style="edgeStyle=orthogonalEdgeStyle;html=1;" parent="65" source="73" target="68" edge="1">
                    <mxGeometry relative="1" as="geometry"/>
                </mxCell>
                <mxCell id="73" value="Cadastrar usuário" style="rounded=1;whiteSpace=wrap;html=1;labelBackgroundColor=none;" parent="65" vertex="1">
                    <mxGeometry x="190" y="140" width="60" height="40" as="geometry"/>
                </mxCell>
                <mxCell id="70" value="N" style="edgeStyle=orthogonalEdgeStyle;html=1;" parent="65" source="71" target="73" edge="1">
                    <mxGeometry relative="1" as="geometry">
                        <Array as="points">
                            <mxPoint x="130" y="160"/>
                        </Array>
                    </mxGeometry>
                </mxCell>
                <mxCell id="71" value="Usuário existe?" style="points=[[0.25,0.25,0],[0.5,0,0],[0.75,0.25,0],[1,0.5,0],[0.75,0.75,0],[0.5,1,0],[0.25,0.75,0],[0,0.5,0]];shape=mxgraph.bpmn.gateway2;html=1;verticalLabelPosition=bottom;labelBackgroundColor=default;verticalAlign=top;align=center;perimeter=rhombusPerimeter;outlineConnect=0;outline=none;symbol=none;gwType=exclusive;fontFamily=Helvetica;fontSize=12;fontColor=default;strokeColor=default;fillColor=default;" parent="65" vertex="1">
                    <mxGeometry x="110" y="60" width="40" height="40" as="geometry"/>
                </mxCell>
                <mxCell id="74" value="Login&lt;br&gt;concluído" style="ellipse;html=1;shape=endState;fillColor=#000000;strokeColor=#ff0000;labelBackgroundColor=none;verticalAlign=middle;spacingTop=70;" parent="65" vertex="1">
                    <mxGeometry x="280" y="60" width="40" height="40" as="geometry"/>
                </mxCell>
                <mxCell id="88" value="Produto (sku=1)&lt;br&gt;preço = 2.99" style="rounded=0;whiteSpace=wrap;html=1;" vertex="1" parent="1">
                    <mxGeometry x="490" y="850" width="120" height="60" as="geometry"/>
                </mxCell>
                <mxCell id="90" value="vendas" style="swimlane;whiteSpace=wrap;html=1;" vertex="1" parent="1">
                    <mxGeometry x="760" y="800" width="430" height="350" as="geometry"/>
                </mxCell>
                <mxCell id="91" value="Venda 1" style="swimlane;whiteSpace=wrap;html=1;" vertex="1" parent="90">
                    <mxGeometry x="23" y="36" width="279" height="298" as="geometry"/>
                </mxCell>
                <mxCell id="92" value="criação" style="rounded=1;whiteSpace=wrap;html=1;" vertex="1" parent="91">
                    <mxGeometry x="10" y="30" width="120" height="30" as="geometry"/>
                </mxCell>
                <mxCell id="95" value="total = 10" style="rounded=1;whiteSpace=wrap;html=1;" vertex="1" parent="91">
                    <mxGeometry x="13" y="203" width="120" height="30" as="geometry"/>
                </mxCell>
                <mxCell id="96" value="usuario" style="rounded=1;whiteSpace=wrap;html=1;" vertex="1" parent="91">
                    <mxGeometry x="13" y="245" width="120" height="30" as="geometry"/>
                </mxCell>
                <mxCell id="97" value="Produtos" style="swimlane;whiteSpace=wrap;html=1;" vertex="1" parent="91">
                    <mxGeometry x="13" y="72" width="183" height="117" as="geometry"/>
                </mxCell>
                <mxCell id="93" value="sku" style="rounded=1;whiteSpace=wrap;html=1;" vertex="1" parent="97">
                    <mxGeometry x="8" y="27" width="120" height="30" as="geometry"/>
                </mxCell>
                <mxCell id="98" value="sku" style="rounded=1;whiteSpace=wrap;html=1;" vertex="1" parent="97">
                    <mxGeometry x="8" y="67" width="120" height="30" as="geometry"/>
                </mxCell>
                <mxCell id="94" style="edgeStyle=none;html=1;" edge="1" parent="1" source="93" target="88">
                    <mxGeometry relative="1" as="geometry"/>
                </mxCell>
                <mxCell id="99" value="Produto (sku=2)&lt;br&gt;preço = 6.99" style="rounded=0;whiteSpace=wrap;html=1;" vertex="1" parent="1">
                    <mxGeometry x="488" y="943" width="120" height="60" as="geometry"/>
                </mxCell>
                <mxCell id="100" style="edgeStyle=none;html=1;" edge="1" parent="1" source="98" target="99">
                    <mxGeometry relative="1" as="geometry"/>
                </mxCell>
            </root>
        </mxGraphModel>
    </diagram>
</mxfile>